<svg xmlns="http://www.w3.org/2000/svg" xmlns:xlink="http://www.w3.org/1999/xlink" width="2000" zoomAndPan="magnify" viewBox="0 0 1500 1499.999933" height="2000" preserveAspectRatio="xMidYMid meet" version="1.0"><defs><g/><clipPath id="2b9a968673"><rect x="0" width="937" y="0" height="1247"/></clipPath></defs><rect x="0" y="0" width="1500" height="1500" rx="330" fill="#000000"/><g transform="matrix(1, 0, 0, 1, 278, 124)"><g clip-path="url(#2b9a968673)"><g fill="#eeede9" fill-opacity="1"><g transform="translate(1.018554, 981.818828)"><g><path d="M 594.703125 0 L 346.21875 0 L 346.21875 -295.265625 C 346.21875 -311.210938 342.226562 -323.171875 334.25 -331.140625 C 326.28125 -339.109375 316.925781 -343.09375 306.1875 -343.09375 C 295.445312 -343.09375 286.085938 -339.28125 278.109375 -331.65625 C 270.140625 -324.03125 266.15625 -312.25 266.15625 -296.3125 L 266.15625 0 L 10.390625 0 L 10.390625 -306.703125 C 10.390625 -361.460938 18.878906 -407.554688 35.859375 -444.984375 C 52.847656 -482.410156 75.722656 -512.5625 104.484375 -535.4375 C 133.253906 -558.3125 165.140625 -574.945312 200.140625 -585.34375 C 235.140625 -595.738281 270.660156 -600.9375 306.703125 -600.9375 C 335.816406 -600.9375 364.582031 -595.910156 393 -585.859375 C 421.414062 -575.804688 447.410156 -559 470.984375 -535.4375 C 491.078125 -557.613281 515.851562 -573.898438 545.3125 -584.296875 C 574.769531 -594.703125 603.707031 -600.25 632.125 -600.9375 C 668.863281 -600.9375 704.90625 -595.5625 740.25 -584.8125 C 775.601562 -574.070312 807.660156 -557.09375 836.421875 -533.875 C 865.191406 -510.65625 888.238281 -480.332031 905.5625 -442.90625 C 922.894531 -405.476562 931.5625 -360.078125 931.5625 -306.703125 L 931.5625 0 L 675.796875 0 L 675.796875 -296.3125 C 675.796875 -312.25 671.632812 -324.03125 663.3125 -331.65625 C 655 -339.28125 645.644531 -343.09375 635.25 -343.09375 C 624.851562 -343.09375 615.492188 -339.109375 607.171875 -331.140625 C 598.859375 -323.171875 594.703125 -311.210938 594.703125 -295.265625 Z M 594.703125 0 "/></g></g></g></g></g></svg>