<svg xmlns="http://www.w3.org/2000/svg" xmlns:xlink="http://www.w3.org/1999/xlink" width="2000" zoomAndPan="magnify" viewBox="0 0 1500 1499.999933" height="2000" preserveAspectRatio="xMidYMid meet" version="1.0"><defs><g/><clipPath id="07e5132cbf"><path d="M 0.359375 0.441406 L 555 0.441406 L 555 738.679688 L 0.359375 738.679688 Z M 0.359375 0.441406 " clip-rule="nonzero"/></clipPath><clipPath id="1aad4350ea"><rect x="0" width="555" y="0" height="739"/></clipPath><clipPath id="9030df6121"><path d="M 580 448 L 815.640625 448 L 815.640625 595 L 580 595 Z M 580 448 " clip-rule="nonzero"/></clipPath><clipPath id="c2b905836a"><rect x="0" width="236" y="0" height="147"/></clipPath><clipPath id="ebd489bdfc"><rect x="0" width="816" y="0" height="739"/></clipPath></defs><rect x="-150" width="1800" fill="#ffffff" y="-149.999993" height="1799.99992" fill-opacity="1"/><rect x="-150" width="1800" fill="#eeede9" y="-149.999993" height="1799.99992" fill-opacity="1"/><g transform="matrix(1, 0, 0, 1, 261, 379)"><g clip-path="url(#ebd489bdfc)"><g clip-path="url(#07e5132cbf)"><g transform="matrix(1, 0, 0, 1, 0, 0.000000000000113687)"><g clip-path="url(#1aad4350ea)"><g fill="#1b1b1b" fill-opacity="1"><g transform="translate(0.570333, 581.866895)"><g><path d="M 352.4375 0 L 205.171875 0 L 205.171875 -174.984375 C 205.171875 -184.429688 202.804688 -191.515625 198.078125 -196.234375 C 193.359375 -200.960938 187.816406 -203.328125 181.453125 -203.328125 C 175.085938 -203.328125 169.539062 -201.066406 164.8125 -196.546875 C 160.09375 -192.023438 157.734375 -185.039062 157.734375 -175.59375 L 157.734375 0 L 6.15625 0 L 6.15625 -181.765625 C 6.15625 -214.210938 11.1875 -241.523438 21.25 -263.703125 C 31.320312 -285.890625 44.878906 -303.757812 61.921875 -317.3125 C 78.960938 -330.863281 97.851562 -340.71875 118.59375 -346.875 C 139.34375 -353.039062 160.398438 -356.125 181.765625 -356.125 C 199.015625 -356.125 216.054688 -353.144531 232.890625 -347.1875 C 249.734375 -341.238281 265.140625 -331.28125 279.109375 -317.3125 C 291.023438 -330.457031 305.710938 -340.109375 323.171875 -346.265625 C 340.628906 -352.429688 357.773438 -355.71875 374.609375 -356.125 C 396.378906 -356.125 417.738281 -352.941406 438.6875 -346.578125 C 459.632812 -340.210938 478.628906 -330.148438 495.671875 -316.390625 C 512.722656 -302.628906 526.382812 -284.65625 536.65625 -262.46875 C 546.925781 -240.289062 552.0625 -213.390625 552.0625 -181.765625 L 552.0625 0 L 400.484375 0 L 400.484375 -175.59375 C 400.484375 -185.039062 398.019531 -192.023438 393.09375 -196.546875 C 388.164062 -201.066406 382.617188 -203.328125 376.453125 -203.328125 C 370.296875 -203.328125 364.753906 -200.960938 359.828125 -196.234375 C 354.898438 -191.515625 352.4375 -184.429688 352.4375 -174.984375 Z M 352.4375 0 "/></g></g></g></g></g></g><g clip-path="url(#9030df6121)"><g transform="matrix(1, 0, 0, 1, 580, 448)"><g clip-path="url(#c2b905836a)"><g fill="#1b1b1b" fill-opacity="1"><g transform="translate(0.535996, 65.629575)"><g><path d="M 14.453125 0.71875 C 11.035156 0.71875 8.191406 -0.195312 5.921875 -2.03125 C 3.660156 -3.875 2.53125 -6.523438 2.53125 -9.984375 C 2.53125 -11.929688 2.90625 -13.582031 3.65625 -14.9375 C 4.414062 -16.300781 5.421875 -17.414062 6.671875 -18.28125 C 7.835938 -19.101562 9.164062 -19.75 10.65625 -20.21875 C 12.15625 -20.695312 13.660156 -21.085938 15.171875 -21.390625 L 26 -23.40625 C 25.90625 -25.65625 25.320312 -27.363281 24.25 -28.53125 C 23.164062 -29.695312 21.546875 -30.28125 19.390625 -30.28125 C 17.742188 -30.28125 16.28125 -29.789062 15 -28.8125 C 13.726562 -27.84375 12.921875 -26.492188 12.578125 -24.765625 L 3.890625 -24.765625 C 4.316406 -27.617188 5.304688 -29.953125 6.859375 -31.765625 C 8.421875 -33.578125 10.316406 -34.925781 12.546875 -35.8125 C 14.773438 -36.695312 17.078125 -37.140625 19.453125 -37.140625 C 21.566406 -37.140625 23.59375 -36.835938 25.53125 -36.234375 C 27.476562 -35.628906 29.125 -34.703125 30.46875 -33.453125 C 31.894531 -32.203125 32.910156 -30.765625 33.515625 -29.140625 C 34.117188 -27.515625 34.472656 -25.828125 34.578125 -24.078125 C 34.691406 -22.328125 34.75 -20.613281 34.75 -18.9375 L 34.75 0 L 26 0 L 26 -4.921875 C 25.09375 -3.328125 23.988281 -2.117188 22.6875 -1.296875 C 21.5625 -0.554688 20.296875 -0.0351562 18.890625 0.265625 C 17.492188 0.566406 16.015625 0.71875 14.453125 0.71875 Z M 16.59375 -6.15625 C 18.320312 -6.15625 19.878906 -6.503906 21.265625 -7.203125 C 23.160156 -8.148438 24.441406 -9.421875 25.109375 -11.015625 C 25.785156 -12.617188 26.144531 -14.609375 26.1875 -16.984375 L 17.5 -15.234375 C 16.25 -15.015625 15.222656 -14.734375 14.421875 -14.390625 C 13.617188 -14.046875 12.960938 -13.632812 12.453125 -13.15625 C 12.097656 -12.8125 11.8125 -12.398438 11.59375 -11.921875 C 11.382812 -11.453125 11.28125 -10.914062 11.28125 -10.3125 C 11.28125 -8.96875 11.785156 -7.9375 12.796875 -7.21875 C 13.816406 -6.507812 15.082031 -6.15625 16.59375 -6.15625 Z M 16.59375 -6.15625 "/></g></g></g><g fill="#1b1b1b" fill-opacity="1"><g transform="translate(35.60747, 65.629575)"><g><path d="M 22.5625 0 L 15.359375 0 C 12.679688 0 10.597656 -0.625 9.109375 -1.875 C 7.617188 -3.132812 6.875 -5.164062 6.875 -7.96875 L 6.875 -29.359375 L 1.484375 -29.359375 L 1.484375 -36.375 L 6.875 -36.375 L 6.875 -49.46875 L 15.625 -49.46875 L 15.625 -36.375 L 22.625 -36.375 L 22.625 -29.359375 L 15.625 -29.359375 L 15.625 -10.625 C 15.625 -9.675781 15.785156 -8.878906 16.109375 -8.234375 C 16.429688 -7.585938 17.265625 -7.265625 18.609375 -7.265625 L 22.5625 -7.265625 Z M 22.5625 0 "/></g></g></g><g fill="#1b1b1b" fill-opacity="1"><g transform="translate(57.194885, 65.629575)"><g><path d="M 12.765625 0 L 4.015625 0 L 4.015625 -49.46875 L 12.765625 -49.46875 L 12.765625 -31.765625 C 14.234375 -33.796875 15.753906 -35.195312 17.328125 -35.96875 C 18.910156 -36.75 20.675781 -37.140625 22.625 -37.140625 C 25.945312 -37.140625 28.472656 -36.546875 30.203125 -35.359375 C 31.929688 -34.171875 33.1875 -32.734375 33.96875 -31.046875 C 34.75 -29.453125 35.203125 -27.820312 35.328125 -26.15625 C 35.460938 -24.488281 35.53125 -22.75 35.53125 -20.9375 L 35.53125 0 L 26.78125 0 L 26.78125 -21.0625 C 26.78125 -24.613281 26.195312 -27.035156 25.03125 -28.328125 C 23.988281 -29.410156 22.453125 -29.953125 20.421875 -29.953125 C 17.910156 -29.953125 16.050781 -29.21875 14.84375 -27.75 C 14.113281 -26.882812 13.582031 -25.738281 13.25 -24.3125 C 12.925781 -22.882812 12.765625 -20.960938 12.765625 -18.546875 Z M 12.765625 0 "/></g></g></g><g fill="#1b1b1b" fill-opacity="1"><g transform="translate(93.173931, 65.629575)"><g><path d="M 21 0.71875 C 17.28125 0.71875 14.023438 -0.09375 11.234375 -1.71875 C 8.453125 -3.34375 6.296875 -5.554688 4.765625 -8.359375 C 3.234375 -11.171875 2.46875 -14.367188 2.46875 -17.953125 C 2.46875 -20.328125 2.832031 -22.660156 3.5625 -24.953125 C 4.300781 -27.242188 5.425781 -29.304688 6.9375 -31.140625 C 8.445312 -32.984375 10.347656 -34.441406 12.640625 -35.515625 C 14.929688 -36.597656 17.632812 -37.140625 20.75 -37.140625 C 23.082031 -37.140625 25.335938 -36.769531 27.515625 -36.03125 C 29.703125 -35.300781 31.660156 -34.171875 33.390625 -32.640625 C 35.117188 -31.109375 36.488281 -29.148438 37.5 -26.765625 C 38.519531 -24.390625 39.03125 -21.5625 39.03125 -18.28125 L 39.03125 -16.40625 L 11.546875 -16.40625 C 11.628906 -15.625 11.800781 -14.851562 12.0625 -14.09375 C 12.320312 -13.34375 12.601562 -12.6875 12.90625 -12.125 C 13.769531 -10.4375 14.925781 -9.128906 16.375 -8.203125 C 17.820312 -7.273438 19.472656 -6.8125 21.328125 -6.8125 C 23.398438 -6.8125 25.140625 -7.347656 26.546875 -8.421875 C 27.953125 -9.503906 28.9375 -10.78125 29.5 -12.25 L 38.4375 -12.25 C 37.75 -9.914062 36.648438 -7.765625 35.140625 -5.796875 C 33.628906 -3.835938 31.703125 -2.257812 29.359375 -1.0625 C 27.023438 0.125 24.238281 0.71875 21 0.71875 Z M 11.921875 -22.953125 L 30.078125 -22.953125 C 30.035156 -23.421875 29.914062 -23.957031 29.71875 -24.5625 C 29.53125 -25.175781 29.195312 -25.757812 28.71875 -26.3125 C 27.894531 -27.613281 26.800781 -28.585938 25.4375 -29.234375 C 24.082031 -29.878906 22.601562 -30.203125 21 -30.203125 C 19.40625 -30.203125 17.945312 -29.878906 16.625 -29.234375 C 15.3125 -28.585938 14.222656 -27.613281 13.359375 -26.3125 C 12.878906 -25.757812 12.539062 -25.175781 12.34375 -24.5625 C 12.15625 -23.957031 12.015625 -23.421875 11.921875 -22.953125 Z M 11.921875 -22.953125 "/></g></g></g><g fill="#1b1b1b" fill-opacity="1"><g transform="translate(131.421907, 65.629575)"><g><path d="M 20.359375 0 L 12.0625 0 L 0.96875 -36.375 L 10.3125 -36.375 L 16.53125 -12.765625 L 23.46875 -36.375 L 31.046875 -36.375 L 37.984375 -12.90625 L 44.40625 -36.375 L 53.671875 -36.375 L 42.390625 0 L 34.171875 0 L 27.359375 -24.5 Z M 20.359375 0 "/></g></g></g><g fill="#1b1b1b" fill-opacity="1"><g transform="translate(182.894591, 65.629575)"><g><path d="M 19.703125 0.71875 C 16.941406 0.71875 14.304688 0.273438 11.796875 -0.609375 C 9.285156 -1.492188 7.175781 -2.898438 5.46875 -4.828125 C 3.769531 -6.753906 2.703125 -9.226562 2.265625 -12.25 L 10.890625 -12.25 C 11.453125 -10.257812 12.488281 -8.742188 14 -7.703125 C 15.507812 -6.671875 17.390625 -6.15625 19.640625 -6.15625 C 21.503906 -6.15625 23.039062 -6.519531 24.25 -7.25 C 25.457031 -7.988281 26.0625 -9.03125 26.0625 -10.375 C 26.0625 -11.457031 25.660156 -12.3125 24.859375 -12.9375 C 24.054688 -13.5625 23.003906 -14.046875 21.703125 -14.390625 C 20.410156 -14.734375 18.988281 -15.054688 17.4375 -15.359375 C 15.882812 -15.660156 14.296875 -16.023438 12.671875 -16.453125 C 11.054688 -16.890625 9.578125 -17.488281 8.234375 -18.25 C 6.890625 -19.007812 5.804688 -20.023438 4.984375 -21.296875 C 4.171875 -22.566406 3.765625 -24.21875 3.765625 -26.25 C 3.765625 -28.800781 4.410156 -30.875 5.703125 -32.46875 C 7.003906 -34.070312 8.722656 -35.25 10.859375 -36 C 12.992188 -36.757812 15.316406 -37.140625 17.828125 -37.140625 C 22.066406 -37.140625 25.609375 -36.070312 28.453125 -33.9375 C 31.304688 -31.800781 33.054688 -28.742188 33.703125 -24.765625 L 25.484375 -24.765625 C 24.960938 -26.753906 23.988281 -28.171875 22.5625 -29.015625 C 21.132812 -29.859375 19.535156 -30.28125 17.765625 -30.28125 C 16.035156 -30.28125 14.660156 -29.941406 13.640625 -29.265625 C 12.628906 -28.597656 12.125 -27.703125 12.125 -26.578125 C 12.125 -25.585938 12.507812 -24.8125 13.28125 -24.25 C 14.0625 -23.6875 15.085938 -23.253906 16.359375 -22.953125 C 17.640625 -22.648438 19.015625 -22.347656 20.484375 -22.046875 C 22.085938 -21.742188 23.71875 -21.382812 25.375 -20.96875 C 27.039062 -20.5625 28.578125 -19.976562 29.984375 -19.21875 C 31.390625 -18.46875 32.523438 -17.429688 33.390625 -16.109375 C 34.253906 -14.785156 34.6875 -13.085938 34.6875 -11.015625 C 34.6875 -7.472656 33.367188 -4.628906 30.734375 -2.484375 C 28.097656 -0.347656 24.421875 0.71875 19.703125 0.71875 Z M 19.703125 0.71875 "/></g></g></g><g fill="#1b1b1b" fill-opacity="1"><g transform="translate(0.535996, 130.456426)"><g><path d="M 12.703125 0 L 3.953125 0 L 3.953125 -36.375 L 12.703125 -36.375 L 12.703125 -31.765625 C 14.128906 -33.753906 15.675781 -35.144531 17.34375 -35.9375 C 19.007812 -36.738281 20.769531 -37.140625 22.625 -37.140625 C 25 -37.140625 27.039062 -36.65625 28.75 -35.6875 C 30.457031 -34.71875 31.59375 -33.257812 32.15625 -31.3125 C 33.363281 -33.34375 34.851562 -34.820312 36.625 -35.75 C 38.394531 -36.675781 40.46875 -37.140625 42.84375 -37.140625 C 46.957031 -37.140625 49.972656 -35.941406 51.890625 -33.546875 C 53.816406 -31.148438 54.78125 -27.921875 54.78125 -23.859375 L 54.78125 0 L 46.03125 0 L 46.03125 -22.75 C 46.03125 -25.257812 45.539062 -27.085938 44.5625 -28.234375 C 43.59375 -29.378906 42.179688 -29.953125 40.328125 -29.953125 C 39.367188 -29.953125 38.519531 -29.789062 37.78125 -29.46875 C 37.050781 -29.144531 36.453125 -28.722656 35.984375 -28.203125 C 35.160156 -27.253906 34.585938 -26.054688 34.265625 -24.609375 C 33.941406 -23.160156 33.78125 -21.375 33.78125 -19.25 L 33.78125 0 L 25.03125 0 L 25.03125 -22.75 C 25.03125 -25.21875 24.519531 -27.035156 23.5 -28.203125 C 22.488281 -29.367188 21.070312 -29.953125 19.25 -29.953125 C 17.4375 -29.953125 15.96875 -29.328125 14.84375 -28.078125 C 14.15625 -27.253906 13.625 -26.160156 13.25 -24.796875 C 12.882812 -23.429688 12.703125 -21.582031 12.703125 -19.25 Z M 12.703125 0 "/></g></g></g><g fill="#1b1b1b" fill-opacity="1"><g transform="translate(55.833466, 130.456426)"><g><path d="M 20.359375 0 L 12.0625 0 L 0.96875 -36.375 L 10.3125 -36.375 L 16.53125 -12.765625 L 23.46875 -36.375 L 31.046875 -36.375 L 37.984375 -12.90625 L 44.40625 -36.375 L 53.671875 -36.375 L 42.390625 0 L 34.171875 0 L 27.359375 -24.5 Z M 20.359375 0 "/></g></g></g><g fill="#1b1b1b" fill-opacity="1"><g transform="translate(107.30615, 130.456426)"><g><path d="M 14.453125 0.71875 C 11.035156 0.71875 8.191406 -0.195312 5.921875 -2.03125 C 3.660156 -3.875 2.53125 -6.523438 2.53125 -9.984375 C 2.53125 -11.929688 2.90625 -13.582031 3.65625 -14.9375 C 4.414062 -16.300781 5.421875 -17.414062 6.671875 -18.28125 C 7.835938 -19.101562 9.164062 -19.75 10.65625 -20.21875 C 12.15625 -20.695312 13.660156 -21.085938 15.171875 -21.390625 L 26 -23.40625 C 25.90625 -25.65625 25.320312 -27.363281 24.25 -28.53125 C 23.164062 -29.695312 21.546875 -30.28125 19.390625 -30.28125 C 17.742188 -30.28125 16.28125 -29.789062 15 -28.8125 C 13.726562 -27.84375 12.921875 -26.492188 12.578125 -24.765625 L 3.890625 -24.765625 C 4.316406 -27.617188 5.304688 -29.953125 6.859375 -31.765625 C 8.421875 -33.578125 10.316406 -34.925781 12.546875 -35.8125 C 14.773438 -36.695312 17.078125 -37.140625 19.453125 -37.140625 C 21.566406 -37.140625 23.59375 -36.835938 25.53125 -36.234375 C 27.476562 -35.628906 29.125 -34.703125 30.46875 -33.453125 C 31.894531 -32.203125 32.910156 -30.765625 33.515625 -29.140625 C 34.117188 -27.515625 34.472656 -25.828125 34.578125 -24.078125 C 34.691406 -22.328125 34.75 -20.613281 34.75 -18.9375 L 34.75 0 L 26 0 L 26 -4.921875 C 25.09375 -3.328125 23.988281 -2.117188 22.6875 -1.296875 C 21.5625 -0.554688 20.296875 -0.0351562 18.890625 0.265625 C 17.492188 0.566406 16.015625 0.71875 14.453125 0.71875 Z M 16.59375 -6.15625 C 18.320312 -6.15625 19.878906 -6.503906 21.265625 -7.203125 C 23.160156 -8.148438 24.441406 -9.421875 25.109375 -11.015625 C 25.785156 -12.617188 26.144531 -14.609375 26.1875 -16.984375 L 17.5 -15.234375 C 16.25 -15.015625 15.222656 -14.734375 14.421875 -14.390625 C 13.617188 -14.046875 12.960938 -13.632812 12.453125 -13.15625 C 12.097656 -12.8125 11.8125 -12.398438 11.59375 -11.921875 C 11.382812 -11.453125 11.28125 -10.914062 11.28125 -10.3125 C 11.28125 -8.96875 11.785156 -7.9375 12.796875 -7.21875 C 13.816406 -6.507812 15.082031 -6.15625 16.59375 -6.15625 Z M 16.59375 -6.15625 "/></g></g></g><g fill="#1b1b1b" fill-opacity="1"><g transform="translate(142.377624, 130.456426)"><g><path d="M 12.703125 0 L 3.953125 0 L 3.953125 -36.375 L 12.703125 -36.375 L 12.703125 -31.765625 C 14.171875 -33.796875 15.703125 -35.195312 17.296875 -35.96875 C 18.898438 -36.75 20.675781 -37.140625 22.625 -37.140625 C 25.945312 -37.140625 28.460938 -36.546875 30.171875 -35.359375 C 31.878906 -34.171875 33.144531 -32.734375 33.96875 -31.046875 C 34.707031 -29.453125 35.140625 -27.820312 35.265625 -26.15625 C 35.398438 -24.488281 35.46875 -22.75 35.46875 -20.9375 L 35.46875 0 L 26.78125 0 L 26.78125 -21.0625 C 26.78125 -22.925781 26.625 -24.429688 26.3125 -25.578125 C 26.007812 -26.722656 25.554688 -27.640625 24.953125 -28.328125 C 23.921875 -29.410156 22.390625 -29.953125 20.359375 -29.953125 C 17.890625 -29.953125 16.050781 -29.21875 14.84375 -27.75 C 14.113281 -26.882812 13.570312 -25.738281 13.21875 -24.3125 C 12.875 -22.882812 12.703125 -20.960938 12.703125 -18.546875 Z M 12.703125 0 "/></g></g></g><g fill="#1b1b1b" fill-opacity="1"><g transform="translate(178.35667, 130.456426)"><g><path d="M 20.6875 13.8125 C 18.21875 13.8125 15.78125 13.472656 13.375 12.796875 C 10.976562 12.128906 8.914062 10.929688 7.1875 9.203125 C 5.46875 7.472656 4.347656 5.050781 3.828125 1.9375 L 12.640625 1.9375 C 13.203125 3.71875 14.140625 5.003906 15.453125 5.796875 C 16.773438 6.597656 18.492188 7 20.609375 7 C 23.597656 7 25.75 6.316406 27.0625 4.953125 C 28.382812 3.597656 29.046875 1.859375 29.046875 -0.265625 L 29.046875 -5.375 C 27.578125 -3.300781 26.019531 -1.894531 24.375 -1.15625 C 22.726562 -0.425781 20.828125 -0.0625 18.671875 -0.0625 C 15.515625 -0.0625 12.734375 -0.859375 10.328125 -2.453125 C 7.929688 -4.054688 6.0625 -6.238281 4.71875 -9 C 3.382812 -11.769531 2.71875 -14.925781 2.71875 -18.46875 C 2.71875 -22.101562 3.382812 -25.320312 4.71875 -28.125 C 6.0625 -30.9375 7.929688 -33.140625 10.328125 -34.734375 C 12.734375 -36.335938 15.515625 -37.140625 18.671875 -37.140625 C 20.828125 -37.140625 22.726562 -36.75 24.375 -35.96875 C 26.019531 -35.195312 27.578125 -33.796875 29.046875 -31.765625 L 29.046875 -36.375 L 37.796875 -36.375 L 37.796875 -2.328125 C 37.796875 1.816406 37.035156 5.066406 35.515625 7.421875 C 34.003906 9.773438 31.953125 11.425781 29.359375 12.375 C 26.773438 13.332031 23.882812 13.8125 20.6875 13.8125 Z M 20.75 -7.578125 C 22.601562 -7.578125 24.234375 -8.050781 25.640625 -9 C 27.046875 -9.957031 28.144531 -11.265625 28.9375 -12.921875 C 29.738281 -14.585938 30.140625 -16.484375 30.140625 -18.609375 C 30.140625 -20.722656 29.738281 -22.613281 28.9375 -24.28125 C 28.144531 -25.945312 27.046875 -27.253906 25.640625 -28.203125 C 24.234375 -29.148438 22.601562 -29.625 20.75 -29.625 C 18.882812 -29.625 17.257812 -29.132812 15.875 -28.15625 C 14.5 -27.1875 13.429688 -25.867188 12.671875 -24.203125 C 11.921875 -22.546875 11.546875 -20.679688 11.546875 -18.609375 C 11.546875 -16.535156 11.921875 -14.664062 12.671875 -13 C 13.429688 -11.332031 14.5 -10.007812 15.875 -9.03125 C 17.257812 -8.0625 18.882812 -7.578125 20.75 -7.578125 Z M 20.75 -7.578125 "/></g></g></g><g fill="#1b1b1b" fill-opacity="1"><g transform="translate(216.863934, 130.456426)"><g><path d="M 8.359375 -40.390625 C 6.890625 -40.390625 5.625 -40.84375 4.5625 -41.75 C 3.507812 -42.65625 2.984375 -43.863281 2.984375 -45.375 C 2.984375 -46.84375 3.507812 -48.039062 4.5625 -48.96875 C 5.625 -49.90625 6.890625 -50.375 8.359375 -50.375 C 9.828125 -50.375 11.09375 -49.90625 12.15625 -48.96875 C 13.21875 -48.039062 13.75 -46.84375 13.75 -45.375 C 13.75 -43.863281 13.21875 -42.65625 12.15625 -41.75 C 11.09375 -40.84375 9.828125 -40.390625 8.359375 -40.390625 Z M 12.703125 0 L 3.953125 0 L 3.953125 -36.375 L 12.703125 -36.375 Z M 12.703125 0 "/></g></g></g></g></g></g></g></g></svg>