<svg xmlns="http://www.w3.org/2000/svg" xmlns:xlink="http://www.w3.org/1999/xlink" width="853" zoomAndPan="magnify" viewBox="242 594 853 395" height="395" preserveAspectRatio="xMidYMid meet" version="1.0"><defs><g/><clipPath id="c2569a3496"><path d="M 0.558594 0.640625 L 562 0.640625 L 562 748.238281 L 0.558594 748.238281 Z M 0.558594 0.640625 " clip-rule="nonzero"/></clipPath><clipPath id="10adcb3831"><rect x="0" width="562" y="0" height="749"/></clipPath><clipPath id="750097f81e"><path d="M 609 461 L 847.519531 461 L 847.519531 610 L 609 610 Z M 609 461 " clip-rule="nonzero"/></clipPath><clipPath id="57b0755c03"><rect x="0" width="239" y="0" height="149"/></clipPath><clipPath id="c8cec1b4a3"><rect x="0" width="848" y="0" height="749"/></clipPath></defs><rect x="-150" width="1800" fill="#ffffff" y="-149.999993" height="1799.99992" fill-opacity="1"/><rect x="-150" width="1800" fill="#000000" y="-149.999993" height="1799.99992" fill-opacity="1"/><g transform="matrix(1, 0, 0, 1, 244, 374)"><g clip-path="url(#c8cec1b4a3)"><g clip-path="url(#c2569a3496)"><g transform="matrix(1, 0, 0, 1, 0, 0.000000000000113687)"><g clip-path="url(#10adcb3831)"><g fill="#eeede9" fill-opacity="1"><g transform="translate(0.670491, 589.521036)"><g><path d="M 356.875 0 L 207.765625 0 L 207.765625 -177.1875 C 207.765625 -186.757812 205.367188 -193.9375 200.578125 -198.71875 C 195.796875 -203.5 190.179688 -205.890625 183.734375 -205.890625 C 177.285156 -205.890625 171.671875 -203.597656 166.890625 -199.015625 C 162.109375 -194.441406 159.71875 -187.375 159.71875 -177.8125 L 159.71875 0 L 6.234375 0 L 6.234375 -184.046875 C 6.234375 -216.910156 11.328125 -244.570312 21.515625 -267.03125 C 31.710938 -289.488281 45.441406 -307.582031 62.703125 -321.3125 C 79.960938 -335.039062 99.09375 -345.023438 120.09375 -351.265625 C 141.101562 -357.503906 162.421875 -360.625 184.046875 -360.625 C 201.515625 -360.625 218.773438 -357.609375 235.828125 -351.578125 C 252.890625 -345.546875 268.488281 -335.457031 282.625 -321.3125 C 294.6875 -334.625 309.554688 -344.398438 327.234375 -350.640625 C 344.910156 -356.878906 362.273438 -360.207031 379.328125 -360.625 C 401.378906 -360.625 423.007812 -357.398438 444.21875 -350.953125 C 465.4375 -344.503906 484.675781 -334.3125 501.9375 -320.375 C 519.195312 -306.4375 533.023438 -288.238281 543.421875 -265.78125 C 553.816406 -243.320312 559.015625 -216.078125 559.015625 -184.046875 L 559.015625 0 L 405.53125 0 L 405.53125 -177.8125 C 405.53125 -187.375 403.035156 -194.441406 398.046875 -199.015625 C 393.054688 -203.597656 387.441406 -205.890625 381.203125 -205.890625 C 374.960938 -205.890625 369.347656 -203.5 364.359375 -198.71875 C 359.367188 -193.9375 356.875 -186.757812 356.875 -177.1875 Z M 356.875 0 "/></g></g></g></g></g></g><g clip-path="url(#750097f81e)"><g transform="matrix(1, 0, 0, 1, 609, 461)"><g clip-path="url(#57b0755c03)"><g fill="#eeede9" fill-opacity="1"><g transform="translate(0.44037, 65.895327)"><g><path d="M 14.640625 0.71875 C 11.179688 0.71875 8.300781 -0.207031 6 -2.0625 C 3.707031 -3.925781 2.5625 -6.609375 2.5625 -10.109375 C 2.5625 -12.078125 2.941406 -13.75 3.703125 -15.125 C 4.472656 -16.507812 5.492188 -17.640625 6.765625 -18.515625 C 7.941406 -19.347656 9.285156 -20.003906 10.796875 -20.484375 C 12.304688 -20.960938 13.828125 -21.351562 15.359375 -21.65625 L 26.328125 -23.703125 C 26.234375 -25.972656 25.640625 -27.695312 24.546875 -28.875 C 23.453125 -30.0625 21.8125 -30.65625 19.625 -30.65625 C 17.957031 -30.65625 16.476562 -30.160156 15.1875 -29.171875 C 13.90625 -28.191406 13.085938 -26.828125 12.734375 -25.078125 L 3.9375 -25.078125 C 4.375 -27.960938 5.378906 -30.320312 6.953125 -32.15625 C 8.535156 -34 10.453125 -35.367188 12.703125 -36.265625 C 14.953125 -37.160156 17.28125 -37.609375 19.6875 -37.609375 C 21.832031 -37.609375 23.890625 -37.300781 25.859375 -36.6875 C 27.828125 -36.082031 29.488281 -35.144531 30.84375 -33.875 C 32.289062 -32.601562 33.320312 -31.144531 33.9375 -29.5 C 34.550781 -27.863281 34.910156 -26.160156 35.015625 -24.390625 C 35.128906 -22.617188 35.1875 -20.878906 35.1875 -19.171875 L 35.1875 0 L 26.328125 0 L 26.328125 -4.984375 C 25.398438 -3.367188 24.28125 -2.144531 22.96875 -1.3125 C 21.832031 -0.570312 20.550781 -0.0507812 19.125 0.25 C 17.707031 0.5625 16.210938 0.71875 14.640625 0.71875 Z M 16.796875 -6.234375 C 18.546875 -6.234375 20.125 -6.582031 21.53125 -7.28125 C 23.457031 -8.25 24.757812 -9.539062 25.4375 -11.15625 C 26.113281 -12.78125 26.472656 -14.796875 26.515625 -17.203125 L 17.71875 -15.421875 C 16.445312 -15.203125 15.40625 -14.914062 14.59375 -14.5625 C 13.789062 -14.21875 13.128906 -13.804688 12.609375 -13.328125 C 12.253906 -12.972656 11.96875 -12.554688 11.75 -12.078125 C 11.53125 -11.597656 11.421875 -11.050781 11.421875 -10.4375 C 11.421875 -9.082031 11.929688 -8.039062 12.953125 -7.3125 C 13.984375 -6.59375 15.265625 -6.234375 16.796875 -6.234375 Z M 16.796875 -6.234375 "/></g></g></g><g fill="#eeede9" fill-opacity="1"><g transform="translate(35.953275, 65.895327)"><g><path d="M 22.84375 0 L 15.5625 0 C 12.84375 0 10.726562 -0.632812 9.21875 -1.90625 C 7.707031 -3.175781 6.953125 -5.234375 6.953125 -8.078125 L 6.953125 -29.734375 L 1.515625 -29.734375 L 1.515625 -36.828125 L 6.953125 -36.828125 L 6.953125 -50.078125 L 15.8125 -50.078125 L 15.8125 -36.828125 L 22.90625 -36.828125 L 22.90625 -29.734375 L 15.8125 -29.734375 L 15.8125 -10.765625 C 15.8125 -9.804688 15.972656 -9 16.296875 -8.34375 C 16.628906 -7.6875 17.476562 -7.359375 18.84375 -7.359375 L 22.84375 -7.359375 Z M 22.84375 0 "/></g></g></g><g fill="#eeede9" fill-opacity="1"><g transform="translate(57.812402, 65.895327)"><g><path d="M 12.9375 0 L 4.0625 0 L 4.0625 -50.078125 L 12.9375 -50.078125 L 12.9375 -32.15625 C 14.414062 -34.21875 15.953125 -35.640625 17.546875 -36.421875 C 19.148438 -37.210938 20.9375 -37.609375 22.90625 -37.609375 C 26.28125 -37.609375 28.84375 -37.003906 30.59375 -35.796875 C 32.34375 -34.597656 33.609375 -33.144531 34.390625 -31.4375 C 35.179688 -29.820312 35.640625 -28.171875 35.765625 -26.484375 C 35.898438 -24.796875 35.96875 -23.035156 35.96875 -21.203125 L 35.96875 0 L 27.109375 0 L 27.109375 -21.328125 C 27.109375 -24.921875 26.519531 -27.375 25.34375 -28.6875 C 24.289062 -29.78125 22.734375 -30.328125 20.671875 -30.328125 C 18.140625 -30.328125 16.257812 -29.582031 15.03125 -28.09375 C 14.289062 -27.21875 13.753906 -26.054688 13.421875 -24.609375 C 13.097656 -23.171875 12.9375 -21.222656 12.9375 -18.765625 Z M 12.9375 0 "/></g></g></g><g fill="#eeede9" fill-opacity="1"><g transform="translate(94.244302, 65.895327)"><g><path d="M 21.265625 0.71875 C 17.503906 0.71875 14.210938 -0.0976562 11.390625 -1.734375 C 8.566406 -3.378906 6.378906 -5.625 4.828125 -8.46875 C 3.273438 -11.3125 2.5 -14.550781 2.5 -18.1875 C 2.5 -20.59375 2.867188 -22.953125 3.609375 -25.265625 C 4.347656 -27.585938 5.484375 -29.675781 7.015625 -31.53125 C 8.554688 -33.394531 10.484375 -34.875 12.796875 -35.96875 C 15.117188 -37.0625 17.851562 -37.609375 21 -37.609375 C 23.363281 -37.609375 25.648438 -37.234375 27.859375 -36.484375 C 30.066406 -35.742188 32.046875 -34.597656 33.796875 -33.046875 C 35.554688 -31.492188 36.945312 -29.515625 37.96875 -27.109375 C 39 -24.703125 39.515625 -21.835938 39.515625 -18.515625 L 39.515625 -16.609375 L 11.6875 -16.609375 C 11.769531 -15.816406 11.941406 -15.035156 12.203125 -14.265625 C 12.472656 -13.503906 12.757812 -12.84375 13.0625 -12.28125 C 13.9375 -10.570312 15.101562 -9.242188 16.5625 -8.296875 C 18.03125 -7.359375 19.707031 -6.890625 21.59375 -6.890625 C 23.695312 -6.890625 25.457031 -7.4375 26.875 -8.53125 C 28.300781 -9.625 29.296875 -10.914062 29.859375 -12.40625 L 38.921875 -12.40625 C 38.222656 -10.039062 37.109375 -7.863281 35.578125 -5.875 C 34.046875 -3.882812 32.097656 -2.285156 29.734375 -1.078125 C 27.367188 0.117188 24.546875 0.71875 21.265625 0.71875 Z M 12.078125 -23.234375 L 30.453125 -23.234375 C 30.410156 -23.710938 30.289062 -24.257812 30.09375 -24.875 C 29.894531 -25.488281 29.554688 -26.082031 29.078125 -26.65625 C 28.242188 -27.96875 27.140625 -28.953125 25.765625 -29.609375 C 24.390625 -30.265625 22.890625 -30.59375 21.265625 -30.59375 C 19.648438 -30.59375 18.171875 -30.265625 16.828125 -29.609375 C 15.492188 -28.953125 14.390625 -27.96875 13.515625 -26.65625 C 13.035156 -26.082031 12.695312 -25.488281 12.5 -24.875 C 12.300781 -24.257812 12.160156 -23.710938 12.078125 -23.234375 Z M 12.078125 -23.234375 "/></g></g></g><g fill="#eeede9" fill-opacity="1"><g transform="translate(132.973691, 65.895327)"><g><path d="M 20.609375 0 L 12.203125 0 L 0.984375 -36.828125 L 10.4375 -36.828125 L 16.734375 -12.9375 L 23.765625 -36.828125 L 31.4375 -36.828125 L 38.46875 -13.0625 L 44.96875 -36.828125 L 54.34375 -36.828125 L 42.921875 0 L 34.59375 0 L 27.703125 -24.8125 Z M 20.609375 0 "/></g></g></g><g fill="#eeede9" fill-opacity="1"><g transform="translate(185.094241, 65.895327)"><g><path d="M 19.953125 0.71875 C 17.148438 0.71875 14.476562 0.269531 11.9375 -0.625 C 9.40625 -1.519531 7.273438 -2.941406 5.546875 -4.890625 C 3.816406 -6.835938 2.734375 -9.34375 2.296875 -12.40625 L 11.03125 -12.40625 C 11.59375 -10.394531 12.640625 -8.863281 14.171875 -7.8125 C 15.703125 -6.757812 17.609375 -6.234375 19.890625 -6.234375 C 21.773438 -6.234375 23.328125 -6.601562 24.546875 -7.34375 C 25.773438 -8.09375 26.390625 -9.144531 26.390625 -10.5 C 26.390625 -11.59375 25.984375 -12.457031 25.171875 -13.09375 C 24.359375 -13.726562 23.296875 -14.21875 21.984375 -14.5625 C 20.671875 -14.914062 19.226562 -15.25 17.65625 -15.5625 C 16.082031 -15.863281 14.472656 -16.234375 12.828125 -16.671875 C 11.191406 -17.109375 9.691406 -17.707031 8.328125 -18.46875 C 6.972656 -19.238281 5.878906 -20.269531 5.046875 -21.5625 C 4.222656 -22.851562 3.8125 -24.523438 3.8125 -26.578125 C 3.8125 -29.160156 4.46875 -31.257812 5.78125 -32.875 C 7.09375 -34.5 8.832031 -35.691406 11 -36.453125 C 13.164062 -37.222656 15.515625 -37.609375 18.046875 -37.609375 C 22.335938 -37.609375 25.925781 -36.523438 28.8125 -34.359375 C 31.707031 -32.191406 33.484375 -29.097656 34.140625 -25.078125 L 25.796875 -25.078125 C 25.273438 -27.085938 24.289062 -28.519531 22.84375 -29.375 C 21.394531 -30.226562 19.773438 -30.65625 17.984375 -30.65625 C 16.234375 -30.65625 14.84375 -30.316406 13.8125 -29.640625 C 12.789062 -28.960938 12.28125 -28.050781 12.28125 -26.90625 C 12.28125 -25.90625 12.671875 -25.117188 13.453125 -24.546875 C 14.242188 -23.984375 15.285156 -23.546875 16.578125 -23.234375 C 17.867188 -22.929688 19.257812 -22.625 20.75 -22.3125 C 22.363281 -22.007812 24.007812 -21.648438 25.6875 -21.234375 C 27.375 -20.816406 28.925781 -20.222656 30.34375 -19.453125 C 31.769531 -18.691406 32.921875 -17.644531 33.796875 -16.3125 C 34.679688 -14.976562 35.125 -13.257812 35.125 -11.15625 C 35.125 -7.570312 33.785156 -4.695312 31.109375 -2.53125 C 28.441406 -0.363281 24.722656 0.71875 19.953125 0.71875 Z M 19.953125 0.71875 "/></g></g></g><g fill="#eeede9" fill-opacity="1"><g transform="translate(0.44037, 131.538129)"><g><path d="M 12.859375 0 L 4 0 L 4 -36.828125 L 12.859375 -36.828125 L 12.859375 -32.15625 C 14.304688 -34.175781 15.875 -35.585938 17.5625 -36.390625 C 19.25 -37.203125 21.03125 -37.609375 22.90625 -37.609375 C 25.3125 -37.609375 27.378906 -37.113281 29.109375 -36.125 C 30.835938 -35.144531 31.988281 -33.671875 32.5625 -31.703125 C 33.78125 -33.765625 35.285156 -35.265625 37.078125 -36.203125 C 38.878906 -37.140625 40.984375 -37.609375 43.390625 -37.609375 C 47.546875 -37.609375 50.597656 -36.394531 52.546875 -33.96875 C 54.492188 -31.539062 55.46875 -28.269531 55.46875 -24.15625 L 55.46875 0 L 46.609375 0 L 46.609375 -23.046875 C 46.609375 -25.578125 46.113281 -27.421875 45.125 -28.578125 C 44.144531 -29.742188 42.710938 -30.328125 40.828125 -30.328125 C 39.867188 -30.328125 39.015625 -30.160156 38.265625 -29.828125 C 37.523438 -29.503906 36.914062 -29.078125 36.4375 -28.546875 C 35.601562 -27.585938 35.019531 -26.375 34.6875 -24.90625 C 34.363281 -23.445312 34.203125 -21.644531 34.203125 -19.5 L 34.203125 0 L 25.34375 0 L 25.34375 -23.046875 C 25.34375 -25.535156 24.828125 -27.367188 23.796875 -28.546875 C 22.765625 -29.734375 21.332031 -30.328125 19.5 -30.328125 C 17.65625 -30.328125 16.164062 -29.691406 15.03125 -28.421875 C 14.332031 -27.585938 13.796875 -26.484375 13.421875 -25.109375 C 13.046875 -23.734375 12.859375 -21.863281 12.859375 -19.5 Z M 12.859375 0 "/></g></g></g><g fill="#eeede9" fill-opacity="1"><g transform="translate(56.433847, 131.538129)"><g><path d="M 20.609375 0 L 12.203125 0 L 0.984375 -36.828125 L 10.4375 -36.828125 L 16.734375 -12.9375 L 23.765625 -36.828125 L 31.4375 -36.828125 L 38.46875 -13.0625 L 44.96875 -36.828125 L 54.34375 -36.828125 L 42.921875 0 L 34.59375 0 L 27.703125 -24.8125 Z M 20.609375 0 "/></g></g></g><g fill="#eeede9" fill-opacity="1"><g transform="translate(108.554397, 131.538129)"><g><path d="M 14.640625 0.71875 C 11.179688 0.71875 8.300781 -0.207031 6 -2.0625 C 3.707031 -3.925781 2.5625 -6.609375 2.5625 -10.109375 C 2.5625 -12.078125 2.941406 -13.75 3.703125 -15.125 C 4.472656 -16.507812 5.492188 -17.640625 6.765625 -18.515625 C 7.941406 -19.347656 9.285156 -20.003906 10.796875 -20.484375 C 12.304688 -20.960938 13.828125 -21.351562 15.359375 -21.65625 L 26.328125 -23.703125 C 26.234375 -25.972656 25.640625 -27.695312 24.546875 -28.875 C 23.453125 -30.0625 21.8125 -30.65625 19.625 -30.65625 C 17.957031 -30.65625 16.476562 -30.160156 15.1875 -29.171875 C 13.90625 -28.191406 13.085938 -26.828125 12.734375 -25.078125 L 3.9375 -25.078125 C 4.375 -27.960938 5.378906 -30.320312 6.953125 -32.15625 C 8.535156 -34 10.453125 -35.367188 12.703125 -36.265625 C 14.953125 -37.160156 17.28125 -37.609375 19.6875 -37.609375 C 21.832031 -37.609375 23.890625 -37.300781 25.859375 -36.6875 C 27.828125 -36.082031 29.488281 -35.144531 30.84375 -33.875 C 32.289062 -32.601562 33.320312 -31.144531 33.9375 -29.5 C 34.550781 -27.863281 34.910156 -26.160156 35.015625 -24.390625 C 35.128906 -22.617188 35.1875 -20.878906 35.1875 -19.171875 L 35.1875 0 L 26.328125 0 L 26.328125 -4.984375 C 25.398438 -3.367188 24.28125 -2.144531 22.96875 -1.3125 C 21.832031 -0.570312 20.550781 -0.0507812 19.125 0.25 C 17.707031 0.5625 16.210938 0.71875 14.640625 0.71875 Z M 16.796875 -6.234375 C 18.546875 -6.234375 20.125 -6.582031 21.53125 -7.28125 C 23.457031 -8.25 24.757812 -9.539062 25.4375 -11.15625 C 26.113281 -12.78125 26.472656 -14.796875 26.515625 -17.203125 L 17.71875 -15.421875 C 16.445312 -15.203125 15.40625 -14.914062 14.59375 -14.5625 C 13.789062 -14.21875 13.128906 -13.804688 12.609375 -13.328125 C 12.253906 -12.972656 11.96875 -12.554688 11.75 -12.078125 C 11.53125 -11.597656 11.421875 -11.050781 11.421875 -10.4375 C 11.421875 -9.082031 11.929688 -8.039062 12.953125 -7.3125 C 13.984375 -6.59375 15.265625 -6.234375 16.796875 -6.234375 Z M 16.796875 -6.234375 "/></g></g></g><g fill="#eeede9" fill-opacity="1"><g transform="translate(144.067302, 131.538129)"><g><path d="M 12.859375 0 L 4 0 L 4 -36.828125 L 12.859375 -36.828125 L 12.859375 -32.15625 C 14.347656 -34.21875 15.898438 -35.640625 17.515625 -36.421875 C 19.140625 -37.210938 20.9375 -37.609375 22.90625 -37.609375 C 26.28125 -37.609375 28.832031 -37.003906 30.5625 -35.796875 C 32.289062 -34.597656 33.566406 -33.144531 34.390625 -31.4375 C 35.140625 -29.820312 35.578125 -28.171875 35.703125 -26.484375 C 35.835938 -24.796875 35.90625 -23.035156 35.90625 -21.203125 L 35.90625 0 L 27.109375 0 L 27.109375 -21.328125 C 27.109375 -23.210938 26.953125 -24.734375 26.640625 -25.890625 C 26.335938 -27.054688 25.878906 -27.988281 25.265625 -28.6875 C 24.222656 -29.78125 22.671875 -30.328125 20.609375 -30.328125 C 18.117188 -30.328125 16.257812 -29.582031 15.03125 -28.09375 C 14.289062 -27.21875 13.742188 -26.054688 13.390625 -24.609375 C 13.035156 -23.171875 12.859375 -21.222656 12.859375 -18.765625 Z M 12.859375 0 "/></g></g></g><g fill="#eeede9" fill-opacity="1"><g transform="translate(180.499202, 131.538129)"><g><path d="M 20.9375 13.984375 C 18.445312 13.984375 15.984375 13.644531 13.546875 12.96875 C 11.117188 12.289062 9.03125 11.078125 7.28125 9.328125 C 5.53125 7.578125 4.394531 5.125 3.875 1.96875 L 12.796875 1.96875 C 13.367188 3.757812 14.320312 5.0625 15.65625 5.875 C 16.988281 6.6875 18.726562 7.09375 20.875 7.09375 C 23.894531 7.09375 26.070312 6.398438 27.40625 5.015625 C 28.738281 3.640625 29.40625 1.878906 29.40625 -0.265625 L 29.40625 -5.453125 C 27.914062 -3.347656 26.335938 -1.921875 24.671875 -1.171875 C 23.015625 -0.429688 21.09375 -0.0625 18.90625 -0.0625 C 15.707031 -0.0625 12.894531 -0.867188 10.46875 -2.484375 C 8.039062 -4.109375 6.144531 -6.320312 4.78125 -9.125 C 3.425781 -11.925781 2.75 -15.117188 2.75 -18.703125 C 2.75 -22.378906 3.425781 -25.640625 4.78125 -28.484375 C 6.144531 -31.328125 8.039062 -33.554688 10.46875 -35.171875 C 12.894531 -36.796875 15.707031 -37.609375 18.90625 -37.609375 C 21.09375 -37.609375 23.015625 -37.210938 24.671875 -36.421875 C 26.335938 -35.640625 27.914062 -34.21875 29.40625 -32.15625 L 29.40625 -36.828125 L 38.265625 -36.828125 L 38.265625 -2.359375 C 38.265625 1.835938 37.5 5.128906 35.96875 7.515625 C 34.4375 9.898438 32.359375 11.570312 29.734375 12.53125 C 27.109375 13.5 24.175781 13.984375 20.9375 13.984375 Z M 21 -7.6875 C 22.882812 -7.6875 24.535156 -8.164062 25.953125 -9.125 C 27.378906 -10.082031 28.492188 -11.40625 29.296875 -13.09375 C 30.109375 -14.78125 30.515625 -16.695312 30.515625 -18.84375 C 30.515625 -20.988281 30.109375 -22.898438 29.296875 -24.578125 C 28.492188 -26.265625 27.378906 -27.585938 25.953125 -28.546875 C 24.535156 -29.515625 22.882812 -30 21 -30 C 19.125 -30 17.484375 -29.503906 16.078125 -28.515625 C 14.679688 -27.535156 13.597656 -26.203125 12.828125 -24.515625 C 12.066406 -22.828125 11.6875 -20.9375 11.6875 -18.84375 C 11.6875 -16.738281 12.066406 -14.84375 12.828125 -13.15625 C 13.597656 -11.476562 14.679688 -10.144531 16.078125 -9.15625 C 17.484375 -8.175781 19.125 -7.6875 21 -7.6875 Z M 21 -7.6875 "/></g></g></g><g fill="#eeede9" fill-opacity="1"><g transform="translate(219.491142, 131.538129)"><g><path d="M 8.46875 -40.890625 C 6.976562 -40.890625 5.695312 -41.347656 4.625 -42.265625 C 3.550781 -43.191406 3.015625 -44.421875 3.015625 -45.953125 C 3.015625 -47.441406 3.550781 -48.65625 4.625 -49.59375 C 5.695312 -50.53125 6.976562 -51 8.46875 -51 C 9.957031 -51 11.238281 -50.53125 12.3125 -49.59375 C 13.382812 -48.65625 13.921875 -47.441406 13.921875 -45.953125 C 13.921875 -44.421875 13.382812 -43.191406 12.3125 -42.265625 C 11.238281 -41.347656 9.957031 -40.890625 8.46875 -40.890625 Z M 12.859375 0 L 4 0 L 4 -36.828125 L 12.859375 -36.828125 Z M 12.859375 0 "/></g></g></g></g></g></g></g></g></svg>