<svg xmlns="http://www.w3.org/2000/svg" xmlns:xlink="http://www.w3.org/1999/xlink" width="500" zoomAndPan="magnify" viewBox="0 0 375 374.999991" height="500" preserveAspectRatio="xMidYMid meet" version="1.0"><defs><g/></defs><g fill="#ffffff" fill-opacity="1"><g transform="translate(117.116568, 231.772881)"><g><path d="M 77.1875 -105.109375 L 77.1875 -76.734375 C 76.175781 -80.640625 74.492188 -84.316406 72.140625 -87.765625 C 69.796875 -91.222656 67.019531 -94.226562 63.8125 -96.78125 C 60.613281 -99.332031 57.035156 -101.359375 53.078125 -102.859375 C 49.128906 -104.359375 45 -105.109375 40.6875 -105.109375 Z M 39.1875 -52.5625 C 41.894531 -52.5625 44.546875 -53.035156 47.140625 -53.984375 C 49.742188 -54.929688 52.097656 -56.207031 54.203125 -57.8125 C 56.304688 -59.414062 58.109375 -61.316406 59.609375 -63.515625 C 61.109375 -65.710938 62.210938 -68.066406 62.921875 -70.578125 L 62.921875 -34.53125 C 62.210938 -37.039062 61.109375 -39.394531 59.609375 -41.59375 C 58.109375 -43.789062 56.304688 -45.691406 54.203125 -47.296875 C 52.097656 -48.898438 49.742188 -50.175781 47.140625 -51.125 C 44.546875 -52.082031 41.894531 -52.5625 39.1875 -52.5625 L 39.1875 -9.90625 C 39.1875 -7.40625 40.0625 -5.128906 41.8125 -3.078125 C 43.570312 -1.023438 45.75 0 48.34375 0 L 3.75 0 C 6.257812 0 8.390625 -1.023438 10.140625 -3.078125 C 11.890625 -5.128906 12.765625 -7.40625 12.765625 -9.90625 L 12.765625 -95.203125 C 12.765625 -97.703125 11.890625 -99.976562 10.140625 -102.03125 C 8.390625 -104.082031 6.257812 -105.109375 3.75 -105.109375 L 39.1875 -105.109375 Z M 39.1875 -52.5625 "/></g></g></g><g fill="#ffffff" fill-opacity="1"><g transform="translate(271.390387, 143.216124)"><g><path d="M -77.03125 89.34375 C -77.03125 93.25 -75.800781 96.648438 -73.34375 99.546875 C -70.894531 102.453125 -67.816406 104.304688 -64.109375 105.109375 L -104.203125 105.109375 C -101.304688 104.710938 -98.476562 103.785156 -95.71875 102.328125 C -92.96875 100.878906 -90.34375 99.078125 -87.84375 96.921875 C -85.34375 94.773438 -83.015625 92.375 -80.859375 89.71875 C -78.703125 87.0625 -76.828125 84.332031 -75.234375 81.53125 C -76.429688 83.738281 -77.03125 86.34375 -77.03125 89.34375 Z M -75.234375 81.53125 C -75.234375 81.53125 -75.128906 81.332031 -74.921875 80.9375 C -75.128906 81.332031 -75.234375 81.53125 -75.234375 81.53125 Z M -30.9375 15.765625 C -30.9375 11.859375 -32.160156 8.453125 -34.609375 5.546875 C -37.066406 2.648438 -40.144531 0.800781 -43.84375 0 L -3.75 0 C -6.550781 0.394531 -9.351562 1.316406 -12.15625 2.765625 C -14.957031 4.222656 -17.609375 6.023438 -20.109375 8.171875 C -22.617188 10.328125 -24.945312 12.734375 -27.09375 15.390625 C -29.25 18.046875 -31.128906 20.773438 -32.734375 23.578125 C -31.535156 21.273438 -30.9375 18.671875 -30.9375 15.765625 Z M -32.734375 23.578125 C -32.929688 23.773438 -33.03125 23.972656 -33.03125 24.171875 C -33.03125 23.972656 -32.929688 23.773438 -32.734375 23.578125 Z M -93.703125 9.15625 C -94.703125 7.257812 -96.203125 5.332031 -98.203125 3.375 C -100.203125 1.425781 -102.203125 0.300781 -104.203125 0 L -57.0625 0 C -58.863281 0.101562 -60.363281 0.929688 -61.5625 2.484375 C -62.757812 4.035156 -63.359375 5.660156 -63.359375 7.359375 C -63.359375 8.554688 -63.007812 9.707031 -62.3125 10.8125 L -14.265625 95.953125 C -13.765625 96.847656 -13.113281 97.820312 -12.3125 98.875 C -11.507812 99.925781 -10.65625 100.875 -9.75 101.71875 C -8.851562 102.570312 -7.878906 103.300781 -6.828125 103.90625 C -5.773438 104.507812 -4.75 104.910156 -3.75 105.109375 L -50.90625 105.109375 C -49.195312 105.003906 -47.71875 104.175781 -46.46875 102.625 C -45.21875 101.070312 -44.59375 99.445312 -44.59375 97.75 C -44.59375 96.644531 -44.941406 95.492188 -45.640625 94.296875 Z M -93.703125 9.15625 "/></g></g></g></svg>