<svg xmlns="http://www.w3.org/2000/svg" xmlns:xlink="http://www.w3.org/1999/xlink" width="500" zoomAndPan="magnify" viewBox="0 0 375 374.999991" height="500" preserveAspectRatio="xMidYMid meet" version="1.0"><defs><g/></defs><g fill="#000000" fill-opacity="1"><g transform="translate(52.080168, 272.682386)"><g><path d="M 148.484375 -202.21875 L 148.484375 -147.625 C 146.554688 -155.132812 143.328125 -162.210938 138.796875 -168.859375 C 134.273438 -175.503906 128.929688 -181.28125 122.765625 -186.1875 C 116.609375 -191.101562 109.726562 -195.003906 102.125 -197.890625 C 94.519531 -200.773438 86.578125 -202.21875 78.296875 -202.21875 Z M 75.40625 -101.109375 C 80.601562 -101.109375 85.703125 -102.019531 90.703125 -103.84375 C 95.710938 -105.675781 100.238281 -108.132812 104.28125 -111.21875 C 108.332031 -114.300781 111.800781 -117.960938 114.6875 -122.203125 C 117.570312 -126.441406 119.691406 -130.96875 121.046875 -135.78125 L 121.046875 -66.4375 C 119.691406 -71.257812 117.570312 -75.785156 114.6875 -80.015625 C 111.800781 -84.253906 108.332031 -87.914062 104.28125 -91 C 100.238281 -94.082031 95.710938 -96.535156 90.703125 -98.359375 C 85.703125 -100.191406 80.601562 -101.109375 75.40625 -101.109375 L 75.40625 -19.0625 C 75.40625 -14.25 77.085938 -9.867188 80.453125 -5.921875 C 83.828125 -1.972656 88.015625 0 93.015625 0 L 7.21875 0 C 12.03125 0 16.125 -1.972656 19.5 -5.921875 C 22.875 -9.867188 24.5625 -14.25 24.5625 -19.0625 L 24.5625 -183.15625 C 24.5625 -187.96875 22.875 -192.347656 19.5 -196.296875 C 16.125 -200.242188 12.03125 -202.21875 7.21875 -202.21875 L 75.40625 -202.21875 Z M 75.40625 -101.109375 "/></g></g></g><g fill="#000000" fill-opacity="1"><g transform="translate(348.907693, 102.296481)"><g><path d="M -148.203125 171.890625 C -148.203125 179.398438 -145.84375 185.945312 -141.125 191.53125 C -136.40625 197.113281 -130.484375 200.675781 -123.359375 202.21875 L -200.484375 202.21875 C -194.898438 201.445312 -189.457031 199.664062 -184.15625 196.875 C -178.863281 194.082031 -173.8125 190.613281 -169 186.46875 C -164.1875 182.332031 -159.707031 177.710938 -155.5625 172.609375 C -151.425781 167.503906 -147.816406 162.257812 -144.734375 156.875 C -147.046875 161.101562 -148.203125 166.109375 -148.203125 171.890625 Z M -144.734375 156.875 C -144.734375 156.875 -144.539062 156.488281 -144.15625 155.71875 C -144.539062 156.488281 -144.734375 156.875 -144.734375 156.875 Z M -59.515625 30.328125 C -59.515625 22.816406 -61.875 16.269531 -66.59375 10.6875 C -71.3125 5.101562 -77.234375 1.539062 -84.359375 0 L -7.21875 0 C -12.613281 0.769531 -18.003906 2.550781 -23.390625 5.34375 C -28.785156 8.132812 -33.890625 11.597656 -38.703125 15.734375 C -43.523438 19.878906 -48.003906 24.503906 -52.140625 29.609375 C -56.285156 34.710938 -59.898438 39.960938 -62.984375 45.359375 C -60.671875 40.929688 -59.515625 35.921875 -59.515625 30.328125 Z M -62.984375 45.359375 C -63.367188 45.742188 -63.5625 46.128906 -63.5625 46.515625 C -63.5625 46.128906 -63.367188 45.742188 -62.984375 45.359375 Z M -180.265625 17.625 C -182.191406 13.96875 -185.082031 10.257812 -188.9375 6.5 C -192.789062 2.738281 -196.640625 0.570312 -200.484375 0 L -109.78125 0 C -113.25 0.1875 -116.132812 1.773438 -118.4375 4.765625 C -120.75 7.753906 -121.90625 10.882812 -121.90625 14.15625 C -121.90625 16.46875 -121.234375 18.679688 -119.890625 20.796875 L -27.4375 184.59375 C -26.476562 186.332031 -25.226562 188.210938 -23.6875 190.234375 C -22.144531 192.253906 -20.503906 194.082031 -18.765625 195.71875 C -17.035156 197.351562 -15.160156 198.75 -13.140625 199.90625 C -11.117188 201.0625 -9.144531 201.832031 -7.21875 202.21875 L -97.9375 202.21875 C -94.65625 202.03125 -91.8125 200.441406 -89.40625 197.453125 C -87 194.472656 -85.796875 191.34375 -85.796875 188.0625 C -85.796875 185.945312 -86.472656 183.734375 -87.828125 181.421875 Z M -180.265625 17.625 "/></g></g></g></svg>